
                <svg viewBox="0 0 52 44" fill="none" xmlns="http://www.w3.org/2000/svg">
                    <path d="M9.72042 2.99368C9.72042 3.11938 9.76876 3.24267 9.8582 3.33211C10.0903 3.569 10.3272 3.8059 10.5665 4.04521C16.8586 10.2964 21.8406 13.3518 25.7977 13.3881C29.7379 13.4244 34.7731 10.352 41.1933 3.99445C41.3795 3.81073 41.5608 3.62943 41.7397 3.44572L41.7856 3.39979C41.875 3.30793 41.9258 3.18707 41.9258 3.05895C41.9258 3.04445 41.9258 3.02994 41.9258 3.01544C41.9137 2.87282 41.8388 2.7447 41.7203 2.66251C40.5238 1.82854 39.2692 1.08885 37.9905 0.465185C37.8067 0.375745 37.5868 0.412002 37.4393 0.554623C32.3244 5.5657 28.2077 8.31417 25.8461 8.29241C23.424 8.27066 19.2952 5.50285 14.2214 0.501442C14.0764 0.358821 13.8564 0.322559 13.6727 0.409582C12.3963 1.02599 11.1369 1.76086 9.93072 2.59241C9.81228 2.6746 9.73734 2.80272 9.72525 2.94534C9.72525 2.95984 9.72525 2.97676 9.72525 2.99127L9.72042 2.99368Z" fill="url(#paint0_linear_8009_435)"></path>
                    <path d="M2.27816 14.4307C2.38702 14.3679 2.51796 14.3481 2.64014 14.3808C2.96132 14.4634 3.28492 14.5501 3.61183 14.6377C12.1715 16.9613 17.3086 19.7482 19.3185 23.1571C21.32 26.5513 21.1768 32.4481 18.8813 41.1871C18.8153 41.4401 18.7489 41.6878 18.6792 41.9346L18.6624 41.9973C18.6276 42.1207 18.5483 42.2251 18.4374 42.2892C18.4248 42.2964 18.4122 42.3037 18.3997 42.3109C18.2701 42.3718 18.1217 42.3709 17.9913 42.3094C16.6708 41.6902 15.4029 40.9735 14.2235 40.1779C14.0542 40.0635 13.9756 39.8549 14.0254 39.6559C15.8075 32.7206 16.1294 27.7812 14.9298 25.7468C13.6999 23.66 9.23855 21.4683 2.37034 19.5748C2.17431 19.5205 2.03292 19.3482 2.01643 19.1456C1.91209 17.732 1.91878 16.2739 2.03581 14.8135C2.04776 14.6698 2.12125 14.5408 2.23872 14.4591C2.25128 14.4518 2.26593 14.4434 2.27849 14.4361L2.27816 14.4307Z" fill="url(#paint1_linear_8009_435)"></path>
                    <path d="M33.2528 42.3217C33.1439 42.2589 33.0613 42.1554 33.0286 42.0332C32.9395 41.7138 32.8527 41.3902 32.7652 41.0633C30.4977 32.4884 30.3426 26.6461 32.2897 23.201C34.2284 19.7705 39.4068 16.9461 48.1226 14.5646C48.3748 14.4953 48.6224 14.4289 48.871 14.3659L48.9337 14.349C49.058 14.3175 49.188 14.334 49.299 14.398C49.3115 14.4053 49.3241 14.4125 49.3366 14.4198C49.4541 14.5016 49.5276 14.6305 49.5396 14.7742C49.6635 16.2274 49.6768 17.6838 49.5775 19.1031C49.5631 19.3069 49.4217 19.4793 49.2245 19.5356C42.3274 21.4599 37.8888 23.6508 36.7268 25.707C35.5346 27.8155 35.8672 32.775 37.6616 39.6698C37.7126 39.8668 37.634 40.0754 37.4668 40.191C36.2948 40.9881 35.0287 41.7114 33.7054 42.3402C33.575 42.4017 33.4266 42.4026 33.2971 42.3417C33.2845 42.3345 33.2698 42.326 33.2573 42.3187L33.2528 42.3217Z" fill="url(#paint2_linear_8009_435)"></path>
                    <defs>
                        <linearGradient id="paint0_linear_8009_435" x1="5.38822" y1="6.87557" x2="41.9258" y2="6.87557" gradientUnits="userSpaceOnUse">
                            <stop stop-color="#E8312C"></stop>
                            <stop offset="0.615385" stop-color="#E2335A"></stop>
                            <stop offset="1" stop-color="#F77216"></stop>
                        </linearGradient>
                        <linearGradient id="paint1_linear_8009_435" x1="3.47383" y1="8.73791" x2="21.743" y2="40.3806" gradientUnits="userSpaceOnUse">
                            <stop stop-color="#E8312C"></stop>
                            <stop offset="0.615385" stop-color="#E2335A"></stop>
                            <stop offset="1" stop-color="#F77216"></stop>
                        </linearGradient>
                        <linearGradient id="paint2_linear_8009_435" x1="27.7249" y1="44.1326" x2="45.994" y2="12.4899" gradientUnits="userSpaceOnUse">
                            <stop stop-color="#E8312C"></stop>
                            <stop offset="0.615385" stop-color="#E2335A"></stop>
                            <stop offset="1" stop-color="#F77216"></stop>
                        </linearGradient>
                    </defs>
                </svg>
            
