<svg xmlns="http://www.w3.org/2000/svg" width="666" height="155" data-name="Layer 1" display="block" style="display:block;width:100%;height:auto;" viewBox="0 0 665.87 155.48"><defs></defs><path fill="#2741e7" fill-rule="evenodd" stroke-width="0" d="M80.37 94.96H59.71c-1.26 0-2.52-.79-3.28-2.1l-9.57-17.83c-.5-1.31-.5-2.62 0-3.67l9.57-17.83c.76-1.31 2.02-2.1 3.28-2.1h11.84c1.26 0 2.52-.79 3.28-2.1l8.57-16c.76-1.31-.25-2.88-1.51-2.88H50.14c-2.77 0-5.04 1.57-6.55 3.93l-18.9 35.14a8.113 8.113 0 0 0 0 7.6L43.59 112a7.47 7.47 0 0 0 6.55 3.93h40.57c1.51 0 2.27-1.57 1.51-2.88L83.4 96.79c-.25-1.31-1.51-1.84-3.02-1.84Z"></path><path fill="currentColor" d="m136.31 45.92-8.06-14.16c-.76-1.31-2.52-1.31-3.28 0L90.95 94.69c-.5 1.31-.5 2.62 0 3.67l8.82 16.52c.76 1.31 2.52 1.31 3.28 0l33.26-61.36a8.113 8.113 0 0 0 0-7.6Z"></path><path fill="currentColor" fill-rule="evenodd" stroke-width="0" d="m95.24 74.77 10.08-18.62c.5-1.05.5-2.62 0-3.93L93.73 31.5c-.76-1.31-2.52-1.31-3.28 0l-9.83 18.09c-.5 1.05-.5 2.62 0 3.67L91.96 74.5c.76 1.57 2.77 1.57 3.28.26Z"></path><path fill="currentColor" d="m166.04 45.92-8.06-14.16c-.76-1.31-2.52-1.31-3.28 0l-34.02 62.93c-.5 1.31-.5 2.62 0 3.67l9.07 16.52c.76 1.31 2.52 1.31 3.28 0l33.26-61.36c1.26-2.36 1.26-5.24-.25-7.6Zm284.3-3.56h4.79c1.26 0 2.02 1.05 1.76 2.36l-13.1 61.62c-.25 1.31-1.26 2.1-2.52 2.1h-6.3c-1.26 0-2.27-.79-2.52-2.1l-11.34-45.36c-.25-1.31-2.27-1.31-2.52 0L407 106.34c-.25 1.31-1.26 2.1-2.52 2.1h-6.3c-1.26 0-2.27-.79-2.52-2.1l-13.1-61.62c-.25-1.05.5-2.36 1.76-2.36h5.29c1.26 0 2.27 1.05 2.52 2.36l8.57 44.32c.25 1.57 2.27 1.57 2.52 0l11.59-44.58c.25-1.31 1.26-2.1 2.52-2.1h4.79c1.26 0 2.27.79 2.52 2.1l11.59 44.58c.25 1.31 2.27 1.31 2.52 0l8.57-44.32c.76-1.57 1.76-2.36 3.02-2.36ZM210.47 78.54c0 4.46.25 7.87.76 10.75.5 2.62 1.26 4.98 2.52 6.56 1.26 1.57 3.02 2.62 5.04 3.15 2.27.52 5.04.79 8.32.79 1.76 0 9.07 0 12.6-.26 1.01 0 2.02.79 2.52 1.84l1.51 4.46c.5 1.31-.5 2.36-1.76 2.36-4.54 0-14.11.26-15.12.26-5.04 0-9.32-.52-12.85-1.57-3.28-1.05-6.05-2.88-8.06-5.24-2.01-2.36-3.53-5.51-4.28-9.18-.76-3.67-1.26-8.39-1.26-13.9v-6.82c0-5.77.5-10.49 1.51-14.16s2.52-6.82 4.54-9.18c2.02-2.36 4.79-3.93 8.06-4.98 3.28-1.05 7.56-1.57 12.35-1.57 1.51 0 10.58 0 15.12.26 1.26 0 2.02 1.31 1.76 2.62l-1.51 4.46c-.5 1.05-1.51 1.84-2.52 1.84-3.78 0-12.09-.26-12.85-.26-3.53 0-6.3.26-8.32.79-2.27.52-3.78 1.57-5.04 2.88-1.26 1.57-2.02 3.67-2.52 6.29s-.5 6.29-.5 10.75v7.08Zm60.47-19.66c3.78 0 7.06.26 9.83 1.05 2.77.79 5.04 1.84 6.55 3.67 1.76 1.84 3.02 4.2 3.78 7.08.76 2.88 1.26 6.56 1.26 11.01v4.98c0 4.46-.5 8.13-1.26 11.01-.76 2.88-2.02 5.24-3.78 7.08-1.76 1.84-4.03 2.88-6.55 3.67-2.77.79-6.05 1.05-9.83 1.05s-7.06-.26-9.83-1.05c-2.77-.79-5.04-1.84-6.55-3.67-1.76-1.84-3.02-4.2-3.78-7.08-.76-2.88-1.26-6.56-1.26-11.01v-4.98c0-4.46.5-8.13 1.26-11.01.76-2.88 2.02-5.24 3.78-7.08 1.76-1.84 4.03-2.88 6.55-3.67 2.77-.79 6.05-1.05 9.83-1.05Zm12.09 22.81c0-3.15-.25-5.77-.5-7.87-.25-1.84-1.01-3.41-1.76-4.46-.76-1.05-2.02-1.84-3.53-2.1s-3.53-.52-6.05-.52-4.54.26-6.05.52-2.77 1.05-3.53 2.1c-.76 1.05-1.51 2.62-1.76 4.46-.25 1.84-.5 4.46-.5 7.87v4.98c0 3.15.25 5.77.5 7.87.25 1.84 1.01 3.41 1.76 4.46.76 1.05 2.01 1.84 3.53 2.1s3.53.52 6.05.52 4.54-.26 6.05-.52 2.77-1.05 3.53-2.1c.76-1.05 1.51-2.62 1.76-4.46.25-1.84.5-4.46.5-7.87v-4.98Zm20.41 26.48c-1.01 0-1.76-.79-1.76-1.84V75.39c0-2.88.5-5.24 1.26-7.08.76-1.84 2.02-3.41 3.53-4.72 1.51-1.31 3.28-2.1 5.54-2.62 2.01-.52 4.54-.79 7.05-.79h9.32c1.26 0 2.02 1.31 1.76 2.62l-1.51 3.67c-.5 1.05-1.51 1.84-2.52 1.84h-6.05c-2.02 0-3.78.26-4.79.52-1.26.26-2.02 1.05-2.77 1.84-.5.79-1.01 1.84-1.01 2.88-.25 1.05-.25 2.36-.25 3.93v28.84c0 1.05-.76 1.84-1.76 1.84h-6.05Zm40.82-20.19c-1.01 0-1.76.79-1.76 1.84 0 1.84.25 3.15.25 4.46.25 1.57.76 2.88 1.51 3.67.76 1.05 2.02 1.57 3.28 1.84 1.51.26 3.28.52 5.8.52 1.26 0 11.09 0 15.37-.26 1.01 0 2.27.79 2.52 1.84l1.26 3.67c.5 1.31-.5 2.36-1.76 2.62-5.04 0-16.38.26-17.39.26-4.28 0-7.56-.52-10.33-1.57-2.77-1.05-4.79-2.36-6.3-4.46-1.51-1.84-2.52-4.2-3.02-6.82s-.76-5.77-.76-8.92v-5.24c0-3.41.25-6.56.76-9.44.5-2.88 1.51-5.24 3.02-7.08 1.51-1.84 3.53-3.41 6.3-4.46 2.77-1.05 6.3-1.57 10.58-1.57 4.03 0 7.31.52 9.83 1.31 2.52 1.05 4.54 2.36 6.05 3.93 1.51 1.57 2.52 3.41 3.02 5.77.5 2.1.76 4.46.76 6.56v1.57c0 2.1-.25 3.93-.25 5.24-.25 1.31-.5 2.36-1.26 2.88-.5.79-1.26 1.31-2.02 1.31-.76.26-1.76.26-3.02.26l-22.43.26Zm9.33-21.5c-2.27 0-4.28.26-5.8.52-1.51.26-2.52 1.05-3.27 2.1s-1.26 2.36-1.51 4.2c-.25 1.31-.25 3.15-.25 4.98 0 1.05.76 1.84 1.76 1.84h18.64c1.01 0 1.76-.79 1.76-1.84v-1.31c0-2.1-.25-3.67-.5-5.24-.25-1.31-1.01-2.36-1.76-3.15-.76-.79-2.01-1.31-3.53-1.57-1.51-.26-3.28-.52-5.54-.52Zm118.17 21.5c-1.01 0-1.76.79-1.76 1.84 0 1.84.25 3.15.5 4.46.25 1.57.76 2.88 1.51 3.67.76 1.05 2.02 1.57 3.28 1.84 1.51.26 3.27.52 5.79.52 1.26 0 11.09 0 15.37-.26 1.01 0 2.02.79 2.52 1.84l1.26 3.67c.5 1.31-.5 2.36-1.76 2.62-5.04 0-16.38.26-17.39.26-4.28 0-7.56-.52-10.33-1.57-2.52-1.05-4.79-2.36-6.3-4.46-1.51-1.84-2.52-4.2-3.02-6.82s-.76-5.77-.76-8.92v-5.24c0-3.41.25-6.56.76-9.44.5-2.88 1.51-5.24 3.02-7.08 1.51-1.84 3.53-3.41 6.3-4.46 2.77-1.05 6.3-1.57 10.58-1.57 4.03 0 7.31.52 9.83 1.31 2.52 1.05 4.54 2.36 6.05 3.93 1.51 1.57 2.52 3.41 3.02 5.77s.76 4.46.76 6.56v1.57c0 2.1 0 3.93-.25 5.24s-.5 2.36-1.26 2.88c-.5.79-1.26 1.31-2.02 1.31-.76.26-1.76.26-2.77.26l-22.93.26Zm9.07-21.5c-2.27 0-4.28.26-5.8.52-1.51.26-2.52 1.05-3.28 2.1-.76 1.05-1.26 2.36-1.51 4.2-.25 1.31-.25 3.15-.5 4.98 0 1.05.76 1.84 1.76 1.84h18.65c1.01 0 1.76-.79 1.76-1.84v-1.31c0-2.1-.25-3.67-.5-5.24-.25-1.31-1.01-2.36-1.76-3.15-.76-.79-2.02-1.31-3.53-1.57-1.26-.26-3.02-.52-5.29-.52Zm131.53 21.5c-1.01 0-1.76.79-1.76 1.84 0 1.84.25 3.15.25 4.46.25 1.57.76 2.88 1.51 3.67.76 1.05 2.02 1.57 3.28 1.84 1.51.26 3.27.52 5.79.52 1.26 0 11.09 0 15.37-.26 1.01 0 2.27.79 2.52 1.84l1.26 3.67c.5 1.31-.5 2.36-1.76 2.62-5.04 0-16.38.26-17.39.26-4.28 0-7.56-.52-10.33-1.57-2.77-1.05-4.79-2.36-6.3-4.46-1.51-1.84-2.52-4.2-3.02-6.82s-.76-5.77-.76-8.92v-5.24c0-3.41.25-6.56.76-9.44.5-2.88 1.51-5.24 3.02-7.08 1.51-1.84 3.53-3.41 6.3-4.46 2.77-1.05 6.3-1.57 10.58-1.57 4.03 0 7.31.52 9.83 1.31 2.52 1.05 4.54 2.36 6.05 3.93 1.51 1.57 2.52 3.41 3.02 5.77.5 2.1.76 4.46.76 6.56v1.57c0 2.1-.25 3.93-.25 5.24-.25 1.31-.5 2.36-1.26 2.88-.5.79-1.26 1.31-2.02 1.31-.76.26-1.76.26-3.02.26l-22.42.26Zm9.32-21.5c-2.27 0-4.28.26-5.8.52-1.51.26-2.52 1.05-3.28 2.1-.76 1.05-1.26 2.36-1.51 4.2-.25 1.31-.25 3.15-.25 4.98 0 1.05.76 1.84 1.76 1.84h18.65c1.01 0 1.76-.79 1.76-1.84v-1.31c0-2.1-.25-3.67-.5-5.24-.25-1.31-1.01-2.36-1.76-3.15-.76-.79-2.02-1.31-3.53-1.57-1.76-.26-3.53-.52-5.54-.52Zm-73.57 33.83c0 2.88-.76 4.98-2.02 6.29-1.26 1.31-3.78 1.84-7.05 1.84h-13.35c-6.3 0-10.58-1.31-13.36-3.67-2.77-2.36-4.03-6.03-4.03-10.75v-2.1c0-5.24 1.51-8.92 4.54-11.01 3.02-2.1 7.56-3.41 13.86-3.41 3.53 0 6.3.26 8.32.79 1.01.26 2.02.52 2.52 1.05.76.26 1.76-.26 1.76-1.31v-.52c0-1.57 0-2.88-.25-3.93-.25-1.05-.76-2.1-1.51-2.88-.76-.79-2.02-1.31-3.53-1.84-1.51-.26-3.53-.52-6.3-.52-2.01 0-10.83 0-14.87.26-1.01 0-2.02-.79-2.52-1.84l-1.26-3.67c-.5-1.31.5-2.36 1.51-2.36 4.79 0 15.12-.26 16.88-.26 7.31 0 12.35 1.31 15.62 3.93 3.28 2.62 4.79 6.56 4.79 11.54l.25 24.39Zm-31.25-6.3c0 2.1.5 3.67 1.76 4.98 1.26 1.05 3.53 1.57 6.8 1.57h11.84c1.01 0 1.76-.79 1.76-1.84v-6.56c0-1.05-.25-2.1-.25-3.15-.25-.79-.76-1.57-1.51-2.1-.76-.52-1.76-1.05-3.02-1.05-1.26-.26-3.28-.26-5.54-.26h-2.02c-2.02 0-3.53 0-4.79.26-1.26.26-2.27.52-3.02 1.05-.76.52-1.26 1.31-1.51 2.1s-.5 1.84-.5 3.15V94Zm45.86-31.73 10.58 31.73c.5 1.31 2.02 1.31 2.52 0l11.09-31.73c.25-1.05 1.51-1.84 2.52-1.84h5.29c1.26 0 2.02 1.31 1.76 2.62l-16.13 43.53c-.5 1.05-1.51 1.84-2.52 1.84h-6.3c-1.01 0-2.02-.79-2.52-1.84l-16.13-43.53c-.5-1.31.5-2.62 1.76-2.62h5.79c1.01 0 2.02.79 2.27 1.84Z"></path></svg>
